<?xml version="1.0" encoding="UTF-8"?>
<!DOCTYPE svg PUBLIC "-//W3C//DTD SVG 1.1//EN" "http://www.w3.org/Graphics/SVG/1.1/DTD/svg11.dtd">
<!-- Creator: CorelDRAW 2018 (64 Bit Versão de avaliação) -->
<svg xmlns="http://www.w3.org/2000/svg" xml:space="preserve" width="266.321mm" height="62.609mm" version="1.1" style="shape-rendering:geometricPrecision; text-rendering:geometricPrecision; image-rendering:optimizeQuality; fill-rule:evenodd; clip-rule:evenodd"
viewBox="0 0 26632.1 6260.9"
 xmlns:xlink="http://www.w3.org/1999/xlink">
 <defs>
  <style type="text/css">
   <![CDATA[
    .fil0 {fill:#FEFEFE;fill-rule:nonzero}
   ]]>
  </style>
 </defs>
 <g id="Camada_x0020_1">
  <metadata id="CorelCorpID_0Corel-Layer"/>
  <path class="fil0" d="M7918.2 2577.88l-920.83 0c-101.47,0 -183.23,82.87 -183.23,184.4l0 1472.79c0,102.71 -82.8,184.33 -184.33,184.33 -101.79,0 -184.4,-81.62 -184.4,-184.33l0 -3683.12c0,-304.79 -247.18,-551.96 -552.03,-551.96 -305.9,0 -553.2,247.17 -553.2,551.96l0 5157.08c0,101.54 -82.61,184.34 -184.34,184.34 -101.53,0 -183.22,-82.8 -183.22,-184.34l0 -4603.88c0,-305.7 -247.44,-553.2 -553.21,-553.2 -304.72,0 -551.89,247.5 -551.89,553.2l0 2577.89c0,101.53 -82.94,184.47 -184.47,184.47 -101.46,0 -184.4,-82.94 -184.4,-184.47l0 -3131.09c0,-304.79 -247.17,-551.96 -551.89,-551.96 -305.77,0 -553.21,247.17 -553.21,551.96l0 4420.66c0,101.46 -81.76,183.22 -183.22,183.22 -101.73,0 -184.34,-81.76 -184.34,-183.22l0 -2946.69c0,-305.71 -247.3,-553.2 -553.2,-553.2 -304.85,0 -552.03,247.49 -552.03,553.2l0 551.96 -736.36 0c-101.79,0 -184.4,82.87 -184.4,184.4 0,101.53 82.61,184.4 184.4,184.4l920.76 0c101.54,0 184.34,-82.87 184.34,-184.4l0 -736.36c0,-101.8 81.76,-184.4 183.29,-184.4 101.66,0 184.34,82.6 184.34,184.4l0 2946.69c0,304.79 247.23,551.96 553.2,551.96 304.79,0 551.96,-247.17 551.96,-551.96l0 -4420.66c0,-101.46 82.67,-183.22 184.47,-183.22 101.53,0 184.33,81.76 184.33,183.22l0 3131.09c0,304.73 247.24,552.03 551.96,552.03 304.79,0 552.03,-247.3 552.03,-552.03l0 -2577.89c0,-101.79 82.8,-184.4 184.33,-184.4 101.8,0 184.47,82.61 184.47,184.4l0 4603.88c0,304.73 247.17,551.9 551.96,551.9 305.97,0 553.2,-247.17 553.2,-551.9l0 -5157.08c0,-101.46 82.68,-183.22 184.34,-183.22 101.53,0 183.23,81.76 183.23,183.22l0 3683.12c0,305.9 247.49,553.2 553.2,553.2 304.72,0 551.89,-247.3 551.89,-553.2l0 -1288.39 736.5 0c101.66,0 184.33,-82.87 184.33,-184.4 0,-101.53 -82.67,-184.4 -184.33,-184.4z"/>
  <path class="fil0" d="M9540.9 2946.43l-447.37 0 -812.66 -1237.52c-47.36,-72.21 -80.65,-126.61 -98.94,-163.18l-5.16 0c7.03,69.4 10.78,175.38 10.78,318.4l0 1082.3 -419.22 0 0 -1969.52 478.31 0 781.71 1199.06c35.64,53.93 68.47,107.39 98.95,160.85l5.16 0c-7.04,-45.96 -10.79,-135.99 -10.79,-270.58l0 -1089.33 419.23 0 0 1969.52zm1282.52 33.76c-282.29,0 -512.07,-91.91 -689.8,-275.26 -177.72,-183.82 -266.35,-422.98 -266.35,-717.94 0,-311.37 90.03,-563.19 270.57,-755.45 180.54,-192.26 419.7,-288.39 717,-288.39 281.36,0 508.8,91.91 682.3,276.2 173.51,183.82 260.26,426.73 260.26,727.78 0,309.5 -90.04,558.97 -270.11,748.89 -179.6,189.45 -414.53,284.17 -703.87,284.17zm19.23 -1654.39c-155.68,0 -279.48,58.14 -370.93,174.91 -91.44,116.76 -137.39,271.51 -137.39,463.77 0,195.08 45.95,349.36 137.39,462.84 91.45,113.48 211.49,170.22 360.15,170.22 152.87,0 273.85,-55.33 363.89,-165.53 89.56,-110.2 134.58,-263.54 134.58,-459.55 0,-203.99 -43.61,-362.96 -130.36,-476.44 -87.22,-113.48 -206.33,-170.22 -357.33,-170.22zm1192.03 1544.66l0 -438.92c79.72,66.59 166.47,116.3 260.26,149.59 93.32,33.3 188.04,50.18 283.24,50.18 55.8,0 105.04,-5.16 146.77,-15.01 41.74,-10.32 76.44,-23.91 104.11,-42.2 28.13,-17.82 49.23,-38.92 62.83,-62.84 13.6,-24.38 20.64,-50.64 20.64,-79.25 0,-38.45 -10.79,-72.68 -32.83,-102.7 -22.04,-30.48 -52.05,-58.14 -90.5,-83.94 -37.99,-25.79 -83,-50.64 -135.53,-74.09 -52.05,-23.91 -108.79,-48.3 -169.28,-73.15 -153.81,-63.78 -268.7,-142.09 -344.67,-234.47 -75.49,-92.85 -113.48,-204.45 -113.48,-335.28 0,-102.7 20.64,-190.86 61.9,-264.48 41.27,-73.63 97.54,-134.59 168.35,-181.95 70.81,-47.83 153.34,-82.53 246.66,-105.04 93.78,-22.51 192.73,-33.76 296.83,-33.76 102.7,0 193.67,6.09 272.92,18.75 79.25,12.2 152.4,31.42 219.46,57.21l0 410.79c-32.82,-22.98 -68.93,-43.14 -107.85,-60.49 -38.92,-17.82 -79.25,-32.36 -120.52,-43.61 -41.26,-11.73 -82.06,-20.17 -122.86,-25.33 -40.8,-5.62 -79.72,-8.44 -116.29,-8.44 -50.65,0 -96.14,4.69 -137.4,14.54 -41.27,9.38 -76.44,22.98 -104.57,40.33 -28.61,17.35 -50.65,38.45 -66.12,62.37 -15.48,24.38 -23.45,51.58 -23.45,82.06 0,32.83 8.91,62.37 26.26,88.63 17.35,25.79 42.2,50.64 74.09,74.09 32.36,23.45 71.28,45.96 117.23,68.46 45.96,22.51 97.54,45.49 155.22,69.41 79.25,33.29 150.06,67.99 212.9,105.04 62.83,37.04 116.76,79.25 161.78,125.67 44.55,46.89 79.25,100.35 103.16,160.38 23.92,60.02 35.64,129.42 35.64,209.14 0,110.2 -20.63,202.11 -62.36,277.14 -41.74,74.56 -98.48,135.05 -170.23,181.01 -71.28,46.42 -154.28,79.72 -249.47,99.88 -94.72,20.17 -195.08,30.01 -300.59,30.01 -107.85,0 -211.02,-9.38 -308.55,-27.66 -97.54,-18.29 -181.95,-45.49 -253.7,-82.07zm1577.02 0l0 -438.92c79.72,66.59 166.47,116.3 260.26,149.59 93.32,33.3 188.04,50.18 283.24,50.18 55.8,0 105.04,-5.16 146.77,-15.01 41.74,-10.32 76.44,-23.91 104.11,-42.2 28.13,-17.82 49.23,-38.92 62.83,-62.84 13.6,-24.38 20.64,-50.64 20.64,-79.25 0,-38.45 -10.79,-72.68 -32.83,-102.7 -22.04,-30.48 -52.05,-58.14 -90.5,-83.94 -37.99,-25.79 -83,-50.64 -135.53,-74.09 -52.05,-23.91 -108.79,-48.3 -169.28,-73.15 -153.81,-63.78 -268.7,-142.09 -344.67,-234.47 -75.49,-92.85 -113.48,-204.45 -113.48,-335.28 0,-102.7 20.64,-190.86 61.9,-264.48 41.27,-73.63 97.54,-134.59 168.35,-181.95 70.81,-47.83 153.34,-82.53 246.66,-105.04 93.78,-22.51 192.73,-33.76 296.83,-33.76 102.7,0 193.67,6.09 272.92,18.75 79.25,12.2 152.4,31.42 219.46,57.21l0 410.79c-32.82,-22.98 -68.93,-43.14 -107.85,-60.49 -38.92,-17.82 -79.25,-32.36 -120.52,-43.61 -41.26,-11.73 -82.06,-20.17 -122.86,-25.33 -40.8,-5.62 -79.72,-8.44 -116.29,-8.44 -50.65,0 -96.14,4.69 -137.4,14.54 -41.27,9.38 -76.44,22.98 -104.57,40.33 -28.61,17.35 -50.65,38.45 -66.12,62.37 -15.48,24.38 -23.45,51.58 -23.45,82.06 0,32.83 8.91,62.37 26.26,88.63 17.35,25.79 42.2,50.64 74.09,74.09 32.36,23.45 71.28,45.96 117.23,68.46 45.96,22.51 97.54,45.49 155.22,69.41 79.25,33.29 150.06,67.99 212.9,105.04 62.83,37.04 116.76,79.25 161.78,125.67 44.55,46.89 79.25,100.35 103.16,160.38 23.92,60.02 35.64,129.42 35.64,209.14 0,110.2 -20.63,202.11 -62.36,277.14 -41.74,74.56 -98.48,135.05 -170.23,181.01 -71.28,46.42 -154.28,79.72 -249.47,99.88 -94.72,20.17 -195.08,30.01 -300.59,30.01 -107.85,0 -211.02,-9.38 -308.55,-27.66 -97.54,-18.29 -181.95,-45.49 -253.7,-82.07zm2499.41 109.73c-282.29,0 -512.07,-91.91 -689.8,-275.26 -177.72,-183.82 -266.35,-422.98 -266.35,-717.94 0,-311.37 90.03,-563.19 270.57,-755.45 180.54,-192.26 419.7,-288.39 717,-288.39 281.36,0 508.8,91.91 682.3,276.2 173.51,183.82 260.26,426.73 260.26,727.78 0,309.5 -90.04,558.97 -270.11,748.89 -179.6,189.45 -414.53,284.17 -703.87,284.17zm19.23 -1654.39c-155.68,0 -279.48,58.14 -370.93,174.91 -91.44,116.76 -137.39,271.51 -137.39,463.77 0,195.08 45.95,349.36 137.39,462.84 91.45,113.48 211.49,170.22 360.15,170.22 152.87,0 273.85,-55.33 363.89,-165.53 89.56,-110.2 134.58,-263.54 134.58,-459.55 0,-203.99 -43.61,-362.96 -130.36,-476.44 -87.22,-113.48 -206.33,-170.22 -357.33,-170.22zm1968.11 1544.66l0 -438.92c79.72,66.59 166.47,116.3 260.26,149.59 93.32,33.3 188.04,50.18 283.24,50.18 55.8,0 105.04,-5.16 146.77,-15.01 41.74,-10.32 76.44,-23.91 104.11,-42.2 28.13,-17.82 49.23,-38.92 62.83,-62.84 13.6,-24.38 20.64,-50.64 20.64,-79.25 0,-38.45 -10.79,-72.68 -32.83,-102.7 -22.04,-30.48 -52.05,-58.14 -90.5,-83.94 -37.99,-25.79 -83,-50.64 -135.53,-74.09 -52.05,-23.91 -108.79,-48.3 -169.28,-73.15 -153.81,-63.78 -268.7,-142.09 -344.67,-234.47 -75.49,-92.85 -113.48,-204.45 -113.48,-335.28 0,-102.7 20.64,-190.86 61.9,-264.48 41.27,-73.63 97.54,-134.59 168.35,-181.95 70.81,-47.83 153.34,-82.53 246.66,-105.04 93.78,-22.51 192.73,-33.76 296.83,-33.76 102.7,0 193.67,6.09 272.92,18.75 79.25,12.2 152.4,31.42 219.46,57.21l0 410.79c-32.82,-22.98 -68.93,-43.14 -107.85,-60.49 -38.92,-17.82 -79.25,-32.36 -120.52,-43.61 -41.26,-11.73 -82.06,-20.17 -122.86,-25.33 -40.8,-5.62 -79.72,-8.44 -116.29,-8.44 -50.65,0 -96.14,4.69 -137.4,14.54 -41.27,9.38 -76.44,22.98 -104.57,40.33 -28.61,17.35 -50.65,38.45 -66.12,62.37 -15.48,24.38 -23.45,51.58 -23.45,82.06 0,32.83 8.91,62.37 26.26,88.63 17.35,25.79 42.2,50.64 74.09,74.09 32.36,23.45 71.28,45.96 117.23,68.46 45.96,22.51 97.54,45.49 155.22,69.41 79.25,33.29 150.06,67.99 212.9,105.04 62.83,37.04 116.76,79.25 161.78,125.67 44.55,46.89 79.25,100.35 103.16,160.38 23.92,60.02 35.64,129.42 35.64,209.14 0,110.2 -20.63,202.11 -62.36,277.14 -41.74,74.56 -98.48,135.05 -170.23,181.01 -71.28,46.42 -154.28,79.72 -249.47,99.88 -94.72,20.17 -195.08,30.01 -300.59,30.01 -107.85,0 -211.02,-9.38 -308.55,-27.66 -97.54,-18.29 -181.95,-45.49 -253.7,-82.07zm3372.1 75.97l-444.55 0 0 -801.88 -815.94 0 0 801.88 -444.55 0 0 -1969.52 444.55 0 0 784.99 815.94 0 0 -784.99 444.55 0 0 1969.52zm1283 33.76c-282.29,0 -512.07,-91.91 -689.8,-275.26 -177.72,-183.82 -266.35,-422.98 -266.35,-717.94 0,-311.37 90.03,-563.19 270.57,-755.45 180.54,-192.26 419.7,-288.39 717,-288.39 281.36,0 508.8,91.91 682.3,276.2 173.51,183.82 260.26,426.73 260.26,727.78 0,309.5 -90.04,558.97 -270.11,748.89 -179.6,189.45 -414.53,284.17 -703.87,284.17zm19.23 -1654.39c-155.68,0 -279.48,58.14 -370.93,174.91 -91.44,116.76 -137.39,271.51 -137.39,463.77 0,195.08 45.95,349.36 137.39,462.84 91.45,113.48 211.49,170.22 360.15,170.22 152.87,0 273.85,-55.33 363.89,-165.53 89.56,-110.2 134.58,-263.54 134.58,-459.55 0,-203.99 -43.61,-362.96 -130.36,-476.44 -87.22,-113.48 -206.33,-170.22 -357.33,-170.22zm3859.33 -348.89l-520.52 1969.52 -491.44 0 -327.32 -1263.78c-17.35,-65.65 -27.67,-139.27 -31.42,-220.86l-5.62 0c-7.98,89.56 -20.17,163.19 -35.64,220.86l-334.82 1263.78 -512.55 0 -517.7 -1969.52 484.88 0 277.14 1311.61c12.19,55.8 20.63,130.83 26.26,225.08l8.44 0c3.28,-70.34 16.88,-147.24 39.86,-230.71l356.86 -1305.98 475.03 0 323.09 1322.86c11.73,48.3 22.51,118.64 31.42,211.49l5.63 0c3.75,-72.68 13.13,-145.84 28.6,-219.93l271.98 -1314.42 447.84 0z"/>
 </g>
</svg>
