<?xml version="1.0" encoding="utf-8"?>
<!-- Generator: Adobe Illustrator 19.0.0, SVG Export Plug-In . SVG Version: 6.00 Build 0)  -->
<svg version="1.1" id="Camada_1" xmlns="http://www.w3.org/2000/svg" xmlns:xlink="http://www.w3.org/1999/xlink" x="0px" y="0px"
	 viewBox="-283 375 44 44" style="enable-background:new -283 375 44 44;" xml:space="preserve">
<style type="text/css">
	.st0{fill:#FFFFFF;}
</style>
<g>
	<g>
		<path class="st0" d="M-240,394h-5c-0.6,0-1,0.4-1,1v8c0,0.6-0.4,1-1,1s-1-0.4-1-1v-20c0-1.7-1.3-3-3-3s-3,1.3-3,3v28
			c0,0.6-0.4,1-1,1s-1-0.4-1-1v-25c0-1.7-1.3-3-3-3s-3,1.3-3,3v14c0,0.6-0.4,1-1,1s-1-0.4-1-1v-17c0-1.7-1.3-3-3-3s-3,1.3-3,3v24
			c0,0.6-0.4,1-1,1s-1-0.4-1-1v-16c0-1.7-1.3-3-3-3s-3,1.3-3,3v3h-4c-0.6,0-1,0.4-1,1s0.4,1,1,1h5c0.6,0,1-0.4,1-1v-4
			c0-0.6,0.4-1,1-1s1,0.4,1,1v16c0,1.7,1.3,3,3,3s3-1.3,3-3v-24c0-0.6,0.4-1,1-1s1,0.4,1,1v17c0,1.7,1.3,3,3,3s3-1.3,3-3v-14
			c0-0.6,0.4-1,1-1s1,0.4,1,1v25c0,1.7,1.3,3,3,3c1.7,0,3-1.3,3-3v-28c0-0.6,0.4-1,1-1s1,0.4,1,1v20c0,1.7,1.3,3,3,3s3-1.3,3-3v-7h4
			c0.6,0,1-0.4,1-1S-239.4,394-240,394z"/>
	</g>
</g>
</svg>
