<?xml version="1.0" encoding="utf-8"?>
<!-- Generator: Adobe Illustrator 19.0.0, SVG Export Plug-In . SVG Version: 6.00 Build 0)  -->
<svg version="1.1" id="Camada_1" xmlns="http://www.w3.org/2000/svg" xmlns:xlink="http://www.w3.org/1999/xlink" x="0px" y="0px"
	 viewBox="71 308.5 754.9 177.5" style="enable-background:new 71 308.5 754.9 177.5;" xml:space="preserve">
<style type="text/css">
	.st0{fill:#FFFFFF;}
</style>
<g id="Camada_x0020_1">
	<path class="st0" d="M295.5,381.6h-26.1c-2.9,0-5.2,2.3-5.2,5.2v41.7c0,2.9-2.3,5.2-5.2,5.2c-2.9,0-5.2-2.3-5.2-5.2V324.2
		c0-8.6-7-15.6-15.6-15.6c-8.7,0-15.7,7-15.7,15.6v146.2c0,2.9-2.3,5.2-5.2,5.2c-2.9,0-5.2-2.3-5.2-5.2V339.9
		c0-8.7-7-15.7-15.7-15.7c-8.6,0-15.6,7-15.6,15.7v73.1c0,2.9-2.4,5.2-5.2,5.2c-2.9,0-5.2-2.4-5.2-5.2v-88.8c0-8.6-7-15.6-15.6-15.6
		c-8.7,0-15.7,7-15.7,15.6v125.3c0,2.9-2.3,5.2-5.2,5.2c-2.9,0-5.2-2.3-5.2-5.2V366c0-8.7-7-15.7-15.7-15.7c-8.6,0-15.6,7-15.6,15.7
		v15.6H76.2c-2.9,0-5.2,2.3-5.2,5.2c0,2.9,2.3,5.2,5.2,5.2h26.1c2.9,0,5.2-2.3,5.2-5.2V366c0-2.9,2.3-5.2,5.2-5.2
		c2.9,0,5.2,2.3,5.2,5.2v83.5c0,8.6,7,15.6,15.7,15.6c8.6,0,15.6-7,15.6-15.6V324.2c0-2.9,2.3-5.2,5.2-5.2c2.9,0,5.2,2.3,5.2,5.2
		v88.8c0,8.6,7,15.6,15.6,15.6c8.6,0,15.6-7,15.6-15.6v-73.1c0-2.9,2.3-5.2,5.2-5.2c2.9,0,5.2,2.3,5.2,5.2v130.5
		c0,8.6,7,15.6,15.6,15.6c8.7,0,15.7-7,15.7-15.6V324.2c0-2.9,2.3-5.2,5.2-5.2c2.9,0,5.2,2.3,5.2,5.2v104.4c0,8.7,7,15.7,15.7,15.7
		c8.6,0,15.6-7,15.6-15.7v-36.5h20.9c2.9,0,5.2-2.3,5.2-5.2S298.3,381.6,295.5,381.6L295.5,381.6z"/>
	<path class="st0" d="M341.5,392h-12.7l-23-35.1c-1.3-2-2.3-3.6-2.8-4.6h-0.1c0.2,2,0.3,5,0.3,9V392h-11.9v-55.8h13.6l22.2,34
		c1,1.5,1.9,3,2.8,4.6h0.1c-0.2-1.3-0.3-3.9-0.3-7.7v-30.9h11.9C341.5,336.2,341.5,392,341.5,392z M377.8,393
		c-8,0-14.5-2.6-19.6-7.8c-5-5.2-7.6-12-7.6-20.4c0-8.8,2.6-16,7.7-21.4s11.9-8.2,20.3-8.2c8,0,14.4,2.6,19.3,7.8
		c4.9,5.2,7.4,12.1,7.4,20.6c0,8.8-2.6,15.8-7.7,21.2C392.7,390.3,386,393,377.8,393z M378.4,346.1c-4.4,0-7.9,1.6-10.5,5
		c-2.6,3.3-3.9,7.7-3.9,13.1c0,5.5,1.3,9.9,3.9,13.1c2.6,3.2,6,4.8,10.2,4.8c4.3,0,7.8-1.6,10.3-4.7c2.5-3.1,3.8-7.5,3.8-13
		c0-5.8-1.2-10.3-3.7-13.5C386,347.7,382.6,346.1,378.4,346.1z M412.1,389.9v-12.4c2.3,1.9,4.7,3.3,7.4,4.2c2.6,0.9,5.3,1.4,8,1.4
		c1.6,0,3-0.1,4.2-0.4c1.2-0.3,2.2-0.7,3-1.2c0.8-0.5,1.4-1.1,1.8-1.8c0.4-0.7,0.6-1.4,0.6-2.2c0-1.1-0.3-2.1-0.9-2.9
		c-0.6-0.9-1.5-1.6-2.6-2.4c-1.1-0.7-2.4-1.4-3.8-2.1c-1.5-0.7-3.1-1.4-4.8-2.1c-4.4-1.8-7.6-4-9.8-6.6c-2.1-2.6-3.2-5.8-3.2-9.5
		c0-2.9,0.6-5.4,1.8-7.5c1.2-2.1,2.8-3.8,4.8-5.2c2-1.4,4.3-2.3,7-3c2.7-0.6,5.5-1,8.4-1c2.9,0,5.5,0.2,7.7,0.5
		c2.2,0.3,4.3,0.9,6.2,1.6v11.6c-0.9-0.7-2-1.2-3.1-1.7c-1.1-0.5-2.2-0.9-3.4-1.2c-1.2-0.3-2.3-0.6-3.5-0.7
		c-1.2-0.2-2.3-0.2-3.3-0.2c-1.4,0-2.7,0.1-3.9,0.4c-1.2,0.3-2.2,0.7-3,1.1c-0.8,0.5-1.4,1.1-1.9,1.8c-0.4,0.7-0.7,1.5-0.7,2.3
		c0,0.9,0.3,1.8,0.7,2.5c0.5,0.7,1.2,1.4,2.1,2.1c0.9,0.7,2,1.3,3.3,1.9c1.3,0.6,2.8,1.3,4.4,2c2.2,0.9,4.3,1.9,6,3
		c1.8,1,3.3,2.2,4.6,3.6c1.3,1.3,2.2,2.8,2.9,4.5c0.7,1.7,1,3.7,1,5.9c0,3.1-0.6,5.7-1.8,7.9c-1.2,2.1-2.8,3.8-4.8,5.1
		c-2,1.3-4.4,2.3-7.1,2.8c-2.7,0.6-5.5,0.9-8.5,0.9c-3.1,0-6-0.3-8.7-0.8C416.6,391.7,414.2,390.9,412.1,389.9L412.1,389.9z
		 M456.8,389.9v-12.4c2.3,1.9,4.7,3.3,7.4,4.2c2.6,0.9,5.3,1.4,8,1.4c1.6,0,3-0.1,4.2-0.4c1.2-0.3,2.2-0.7,3-1.2
		c0.8-0.5,1.4-1.1,1.8-1.8c0.4-0.7,0.6-1.4,0.6-2.2c0-1.1-0.3-2.1-0.9-2.9c-0.6-0.9-1.5-1.6-2.6-2.4c-1.1-0.7-2.4-1.4-3.8-2.1
		c-1.5-0.7-3.1-1.4-4.8-2.1c-4.4-1.8-7.6-4-9.8-6.6c-2.1-2.6-3.2-5.8-3.2-9.5c0-2.9,0.6-5.4,1.8-7.5c1.2-2.1,2.8-3.8,4.8-5.2
		c2-1.4,4.3-2.3,7-3c2.7-0.6,5.5-1,8.4-1c2.9,0,5.5,0.2,7.7,0.5c2.2,0.3,4.3,0.9,6.2,1.6v11.6c-0.9-0.7-2-1.2-3.1-1.7
		c-1.1-0.5-2.2-0.9-3.4-1.2c-1.2-0.3-2.3-0.6-3.5-0.7c-1.2-0.2-2.3-0.2-3.3-0.2c-1.4,0-2.7,0.1-3.9,0.4c-1.2,0.3-2.2,0.7-3,1.1
		c-0.8,0.5-1.4,1.1-1.9,1.8c-0.4,0.7-0.7,1.5-0.7,2.3c0,0.9,0.3,1.8,0.7,2.5c0.5,0.7,1.2,1.4,2.1,2.1c0.9,0.7,2,1.3,3.3,1.9
		c1.3,0.6,2.8,1.3,4.4,2c2.2,0.9,4.3,1.9,6,3c1.8,1,3.3,2.2,4.6,3.6c1.3,1.3,2.2,2.8,2.9,4.5c0.7,1.7,1,3.7,1,5.9
		c0,3.1-0.6,5.7-1.8,7.9c-1.2,2.1-2.8,3.8-4.8,5.1c-2,1.3-4.4,2.3-7.1,2.8c-2.7,0.6-5.5,0.9-8.5,0.9c-3.1,0-6-0.3-8.7-0.8
		C461.3,391.7,458.9,390.9,456.8,389.9L456.8,389.9z M527.7,393c-8,0-14.5-2.6-19.6-7.8c-5-5.2-7.6-12-7.6-20.4
		c0-8.8,2.6-16,7.7-21.4s11.9-8.2,20.3-8.2c8,0,14.4,2.6,19.3,7.8c4.9,5.2,7.4,12.1,7.4,20.6c0,8.8-2.6,15.8-7.7,21.2
		C542.6,390.3,535.9,393,527.7,393L527.7,393z M528.2,346.1c-4.4,0-7.9,1.6-10.5,5c-2.6,3.3-3.9,7.7-3.9,13.1
		c0,5.5,1.3,9.9,3.9,13.1c2.6,3.2,6,4.8,10.2,4.8c4.3,0,7.8-1.6,10.3-4.7c2.5-3.1,3.8-7.5,3.8-13c0-5.8-1.2-10.3-3.7-13.5
		C535.9,347.7,532.5,346.1,528.2,346.1L528.2,346.1z M584,389.9v-12.4c2.3,1.9,4.7,3.3,7.4,4.2c2.6,0.9,5.3,1.4,8,1.4
		c1.6,0,3-0.1,4.2-0.4c1.2-0.3,2.2-0.7,3-1.2c0.8-0.5,1.4-1.1,1.8-1.8c0.4-0.7,0.6-1.4,0.6-2.2c0-1.1-0.3-2.1-0.9-2.9
		c-0.6-0.9-1.5-1.6-2.6-2.4c-1.1-0.7-2.4-1.4-3.8-2.1c-1.5-0.7-3.1-1.4-4.8-2.1c-4.4-1.8-7.6-4-9.8-6.6c-2.1-2.6-3.2-5.8-3.2-9.5
		c0-2.9,0.6-5.4,1.8-7.5c1.2-2.1,2.8-3.8,4.8-5.2c2-1.4,4.3-2.3,7-3c2.7-0.6,5.5-1,8.4-1c2.9,0,5.5,0.2,7.7,0.5
		c2.2,0.3,4.3,0.9,6.2,1.6v11.6c-0.9-0.7-2-1.2-3.1-1.7c-1.1-0.5-2.2-0.9-3.4-1.2c-1.2-0.3-2.3-0.6-3.5-0.7
		c-1.2-0.2-2.3-0.2-3.3-0.2c-1.4,0-2.7,0.1-3.9,0.4c-1.2,0.3-2.2,0.7-3,1.1c-0.8,0.5-1.4,1.1-1.9,1.8c-0.4,0.7-0.7,1.5-0.7,2.3
		c0,0.9,0.3,1.8,0.7,2.5c0.5,0.7,1.2,1.4,2.1,2.1c0.9,0.7,2,1.3,3.3,1.9c1.3,0.6,2.8,1.3,4.4,2c2.2,0.9,4.3,1.9,6,3
		c1.8,1,3.3,2.2,4.6,3.6c1.3,1.3,2.2,2.8,2.9,4.5c0.7,1.7,1,3.7,1,5.9c0,3.1-0.6,5.7-1.8,7.9c-1.2,2.1-2.8,3.8-4.8,5.1
		c-2,1.3-4.4,2.3-7.1,2.8c-2.7,0.6-5.5,0.9-8.5,0.9c-3.1,0-6-0.3-8.7-0.8C588.5,391.7,586.1,390.9,584,389.9L584,389.9z M679.6,392
		H667v-22.7h-23.1V392h-12.6v-55.8h12.6v22.3H667v-22.3h12.6C679.6,336.2,679.6,392,679.6,392z M716,393c-8,0-14.5-2.6-19.6-7.8
		c-5-5.2-7.6-12-7.6-20.4c0-8.8,2.6-16,7.7-21.4c5.1-5.4,11.9-8.2,20.3-8.2c8,0,14.4,2.6,19.3,7.8c4.9,5.2,7.4,12.1,7.4,20.6
		c0,8.8-2.6,15.8-7.7,21.2C730.8,390.3,724.2,393,716,393L716,393z M716.5,346.1c-4.4,0-7.9,1.6-10.5,5c-2.6,3.3-3.9,7.7-3.9,13.1
		c0,5.5,1.3,9.9,3.9,13.1c2.6,3.2,6,4.8,10.2,4.8c4.3,0,7.8-1.6,10.3-4.7c2.5-3.1,3.8-7.5,3.8-13c0-5.8-1.2-10.3-3.7-13.5
		C724.2,347.7,720.8,346.1,716.5,346.1L716.5,346.1z M825.9,336.2L811.2,392h-13.9l-9.3-35.8c-0.5-1.9-0.8-3.9-0.9-6.3h-0.2
		c-0.2,2.5-0.6,4.6-1,6.3l-9.5,35.8h-14.5l-14.7-55.8H761l7.9,37.2c0.3,1.6,0.6,3.7,0.7,6.4h0.2c0.1-2,0.5-4.2,1.1-6.5l10.1-37h13.5
		l9.2,37.5c0.3,1.4,0.6,3.4,0.9,6h0.2c0.1-2.1,0.4-4.1,0.8-6.2l7.7-37.3C813.2,336.2,825.9,336.2,825.9,336.2z"/>
</g>
</svg>
