<?xml version="1.0" encoding="utf-8"?>
<!-- Generator: Adobe Illustrator 19.0.0, SVG Export Plug-In . SVG Version: 6.00 Build 0)  -->
<svg version="1.1" id="Capa_1" xmlns="http://www.w3.org/2000/svg" xmlns:xlink="http://www.w3.org/1999/xlink" x="0px" y="0px"
	 viewBox="-146 238 318 318" style="enable-background:new -146 238 318 318;" xml:space="preserve">
<style type="text/css">
	.st0{fill:#FFFFFF;}
</style>
<g>
	<path class="st0" d="M-78,241h-53c-8.3,0-15,6.7-15,15v53c0,8.3,6.7,15,15,15h53c8.3,0,15-6.7,15-15v-53C-63,247.7-69.7,241-78,241
		z"/>
	<path class="st0" d="M39,241h-53c-8.3,0-15,6.7-15,15v53c0,8.3,6.7,15,15,15h53c8.3,0,15-6.7,15-15v-53C54,247.7,47.3,241,39,241z"
		/>
	<path class="st0" d="M157,241h-53c-8.3,0-15,6.7-15,15v53c0,8.3,6.7,15,15,15h53c8.3,0,15-6.7,15-15v-53
		C172,247.7,165.3,241,157,241z"/>
	<path class="st0" d="M-78,355h-53c-8.3,0-15,6.7-15,15v53c0,8.3,6.7,15,15,15h53c8.3,0,15-6.7,15-15v-53C-63,361.7-69.7,355-78,355
		z"/>
	<path class="st0" d="M39,355h-53c-8.3,0-15,6.7-15,15v53c0,8.3,6.7,15,15,15h53c8.3,0,15-6.7,15-15v-53C54,361.7,47.3,355,39,355z"
		/>
	<path class="st0" d="M157,355h-53c-8.3,0-15,6.7-15,15v53c0,8.3,6.7,15,15,15h53c8.3,0,15-6.7,15-15v-53
		C172,361.7,165.3,355,157,355z"/>
	<path class="st0" d="M-78,470h-53c-8.3,0-15,6.7-15,15v53c0,8.3,6.7,15,15,15h53c8.3,0,15-6.7,15-15v-53C-63,476.7-69.7,470-78,470
		z"/>
	<path class="st0" d="M39,470h-53c-8.3,0-15,6.7-15,15v53c0,8.3,6.7,15,15,15h53c8.3,0,15-6.7,15-15v-53C54,476.7,47.3,470,39,470z"
		/>
	<path class="st0" d="M157,470h-53c-8.3,0-15,6.7-15,15v53c0,8.3,6.7,15,15,15h53c8.3,0,15-6.7,15-15v-53
		C172,476.7,165.3,470,157,470z"/>
</g>
</svg>
