<?xml version="1.0" encoding="utf-8"?>
<!-- Generator: Adobe Illustrator 19.0.0, SVG Export Plug-In . SVG Version: 6.00 Build 0)  -->
<svg version="1.1" id="Camada_1" xmlns="http://www.w3.org/2000/svg" xmlns:xlink="http://www.w3.org/1999/xlink" x="0px" y="0px"
	 viewBox="-89 294 194.1 206" style="enable-background:new -89 294 194.1 206;" xml:space="preserve">
<style type="text/css">
	.st0{fill:#D6D6D6;}
</style>
<g id="OBJECTS">
	<g>
		<g>
			<path class="st0" d="M-44.1,424.9c6.1-1.7,11.8-1.8,16.7-0.3v-77.4c0-8.7,5.8-16.4,14.2-18.8l61.6-17.6l-19.9-11.4
				c-12.4-7.2-27.7-7.2-40.2,0l-54.4,31.4c-12.4,7.2-20,20.4-20,34.8v62.8c0,10.2,3.9,19.8,10.5,27.1
				C-70.7,441.5-58.5,429-44.1,424.9z"/>
			<path class="st0" d="M85.4,332.4v89.2c0,18.6-15.1,38.1-33.8,43.4c-18.6,5.3-33.8-5.5-33.8-24.1s15.1-38.1,33.8-43.4
				c6.1-1.7,11.8-1.8,16.7-0.3v-39.6c0-7.4-7.1-12.7-14.1-10.7l-55.1,15.8c-5.6,1.6-9.4,6.7-9.4,12.5V449c0,13.2-7.6,26.9-18.7,35.6
				l17.4,10.1c12.4,7.2,27.7,7.2,40.2,0L83,463.3c12.4-7.2,20.1-20.4,20.1-34.8v-62.9C103,352.2,96.4,339.8,85.4,332.4z"/>
		</g>
	</g>
</g>
<g id="DESIGNED_BY_FREEPIK">
</g>
</svg>
