<?xml version="1.0" encoding="utf-8"?>
<!-- Generator: Adobe Illustrator 19.0.0, SVG Export Plug-In . SVG Version: 6.00 Build 0)  -->
<svg version="1.1" xmlns="http://www.w3.org/2000/svg" xmlns:xlink="http://www.w3.org/1999/xlink" x="0px" y="0px"
	 viewBox="0 0 433 206" style="enable-background:new 0 0 433 206;" xml:space="preserve">
<style type="text/css">
	.st0{fill:#FFFFFF;}
	.st1{font-family:'FONTSPRINGDEMO-AcherusGrotesqueExtraBold';}
	.st2{font-size:61px;}
	.st3{letter-spacing:4;}
	.st4{font-size:61.0727px;}
</style>
<g id="OBJECTS">
	<g>
		<g>
			<path class="st0" d="M46.9,130.9c6.1-1.7,11.8-1.8,16.7-0.3V53.2c0-8.7,5.8-16.4,14.2-18.8l61.6-17.6L119.5,5.4
				c-12.4-7.2-27.7-7.2-40.2,0L24.9,36.8C12.5,44,4.9,57.2,4.9,71.6v62.8c0,10.2,3.9,19.8,10.5,27.1C20.3,147.5,32.5,135,46.9,130.9
				z"/>
			<path class="st0" d="M176.4,38.4v89.2c0,18.6-15.1,38.1-33.8,43.4c-18.6,5.3-33.8-5.5-33.8-24.1s15.1-38.1,33.8-43.4
				c6.1-1.7,11.8-1.8,16.7-0.3V63.6c0-7.4-7.1-12.7-14.1-10.7L90.1,68.7c-5.6,1.6-9.4,6.7-9.4,12.5V155c0,13.2-7.6,26.9-18.7,35.6
				l17.4,10.1c12.4,7.2,27.7,7.2,40.2,0l54.4-31.4c12.4-7.2,20.1-20.4,20.1-34.8V71.6C194,58.2,187.4,45.8,176.4,38.4z"/>
		</g>
		<g>
			<text transform="matrix(1 0 0 1 227.9939 91.1802)"><tspan x="0" y="0" class="st0 st1 st2 st3">NOSSO</tspan><tspan x="0" y="56.9" class="st0 st1 st4 st3">SHOW</tspan></text>
		</g>
	</g>
</g>
<g id="DESIGNED_BY_FREEPIK">
</g>
</svg>
